<mxfile host="app.diagrams.net" modified="2023-04-09T16:17:36.573Z" agent="Mozilla/5.0 (Windows NT 10.0; Win64; x64) AppleWebKit/537.36 (KHTML, like Gecko) Chrome/111.0.0.0 Safari/537.36" etag="A-BAiqBF9lmX8yPYLqM-" version="21.1.5" type="github">
  <diagram name="Page-1" id="V0nB80aiZzJpeDaO8OGJ">
    <mxGraphModel dx="1434" dy="764" grid="1" gridSize="10" guides="1" tooltips="1" connect="1" arrows="1" fold="1" page="1" pageScale="1" pageWidth="850" pageHeight="1100" math="0" shadow="0">
      <root>
        <mxCell id="0" />
        <mxCell id="1" parent="0" />
        <mxCell id="Or5rSA4idkpQnBIdo2xL-8" style="edgeStyle=orthogonalEdgeStyle;rounded=0;orthogonalLoop=1;jettySize=auto;html=1;exitX=0.5;exitY=0.5;exitDx=0;exitDy=0;exitPerimeter=0;entryX=-0.033;entryY=0.36;entryDx=0;entryDy=0;entryPerimeter=0;" edge="1" parent="1" source="Or5rSA4idkpQnBIdo2xL-1" target="Or5rSA4idkpQnBIdo2xL-4">
          <mxGeometry relative="1" as="geometry" />
        </mxCell>
        <mxCell id="Or5rSA4idkpQnBIdo2xL-9" style="edgeStyle=orthogonalEdgeStyle;rounded=0;orthogonalLoop=1;jettySize=auto;html=1;exitX=0.5;exitY=0.5;exitDx=0;exitDy=0;exitPerimeter=0;entryX=0;entryY=0.5;entryDx=0;entryDy=0;" edge="1" parent="1" source="Or5rSA4idkpQnBIdo2xL-1" target="Or5rSA4idkpQnBIdo2xL-5">
          <mxGeometry relative="1" as="geometry">
            <Array as="points">
              <mxPoint x="95" y="130" />
              <mxPoint x="95" y="160" />
              <mxPoint x="120" y="160" />
            </Array>
          </mxGeometry>
        </mxCell>
        <mxCell id="Or5rSA4idkpQnBIdo2xL-10" style="edgeStyle=orthogonalEdgeStyle;rounded=0;orthogonalLoop=1;jettySize=auto;html=1;exitX=0.5;exitY=0.5;exitDx=0;exitDy=0;exitPerimeter=0;entryX=0;entryY=0.5;entryDx=0;entryDy=0;" edge="1" parent="1" source="Or5rSA4idkpQnBIdo2xL-1" target="Or5rSA4idkpQnBIdo2xL-6">
          <mxGeometry relative="1" as="geometry" />
        </mxCell>
        <mxCell id="Or5rSA4idkpQnBIdo2xL-11" style="edgeStyle=orthogonalEdgeStyle;rounded=0;orthogonalLoop=1;jettySize=auto;html=1;exitX=0.5;exitY=0.5;exitDx=0;exitDy=0;exitPerimeter=0;entryX=0;entryY=0.5;entryDx=0;entryDy=0;" edge="1" parent="1" source="Or5rSA4idkpQnBIdo2xL-1" target="Or5rSA4idkpQnBIdo2xL-7">
          <mxGeometry relative="1" as="geometry" />
        </mxCell>
        <mxCell id="Or5rSA4idkpQnBIdo2xL-1" value="Actor" style="shape=umlActor;verticalLabelPosition=bottom;verticalAlign=top;html=1;" vertex="1" parent="1">
          <mxGeometry x="40" y="100" width="30" height="60" as="geometry" />
        </mxCell>
        <mxCell id="Or5rSA4idkpQnBIdo2xL-17" style="edgeStyle=orthogonalEdgeStyle;rounded=0;orthogonalLoop=1;jettySize=auto;html=1;exitX=0.5;exitY=0;exitDx=0;exitDy=0;exitPerimeter=0;entryX=0.5;entryY=1;entryDx=0;entryDy=0;" edge="1" parent="1" source="Or5rSA4idkpQnBIdo2xL-2" target="Or5rSA4idkpQnBIdo2xL-13">
          <mxGeometry relative="1" as="geometry">
            <Array as="points">
              <mxPoint x="390" y="680" />
              <mxPoint x="185" y="680" />
            </Array>
          </mxGeometry>
        </mxCell>
        <mxCell id="Or5rSA4idkpQnBIdo2xL-19" style="edgeStyle=orthogonalEdgeStyle;rounded=0;orthogonalLoop=1;jettySize=auto;html=1;exitX=0.5;exitY=0;exitDx=0;exitDy=0;exitPerimeter=0;entryX=0.5;entryY=1;entryDx=0;entryDy=0;" edge="1" parent="1" source="Or5rSA4idkpQnBIdo2xL-2" target="Or5rSA4idkpQnBIdo2xL-14">
          <mxGeometry relative="1" as="geometry">
            <Array as="points">
              <mxPoint x="390" y="680" />
              <mxPoint x="345" y="680" />
            </Array>
          </mxGeometry>
        </mxCell>
        <mxCell id="Or5rSA4idkpQnBIdo2xL-20" style="edgeStyle=orthogonalEdgeStyle;rounded=0;orthogonalLoop=1;jettySize=auto;html=1;exitX=0.5;exitY=0;exitDx=0;exitDy=0;exitPerimeter=0;" edge="1" parent="1" source="Or5rSA4idkpQnBIdo2xL-2" target="Or5rSA4idkpQnBIdo2xL-15">
          <mxGeometry relative="1" as="geometry">
            <Array as="points">
              <mxPoint x="390" y="680" />
              <mxPoint x="505" y="680" />
            </Array>
          </mxGeometry>
        </mxCell>
        <mxCell id="Or5rSA4idkpQnBIdo2xL-21" style="edgeStyle=orthogonalEdgeStyle;rounded=0;orthogonalLoop=1;jettySize=auto;html=1;exitX=0.5;exitY=0;exitDx=0;exitDy=0;exitPerimeter=0;entryX=0.5;entryY=1;entryDx=0;entryDy=0;" edge="1" parent="1" source="Or5rSA4idkpQnBIdo2xL-2" target="Or5rSA4idkpQnBIdo2xL-16">
          <mxGeometry relative="1" as="geometry">
            <Array as="points">
              <mxPoint x="390" y="680" />
              <mxPoint x="665" y="680" />
            </Array>
          </mxGeometry>
        </mxCell>
        <mxCell id="Or5rSA4idkpQnBIdo2xL-2" value="Actor" style="shape=umlActor;verticalLabelPosition=bottom;verticalAlign=top;html=1;" vertex="1" parent="1">
          <mxGeometry x="375" y="710" width="30" height="60" as="geometry" />
        </mxCell>
        <mxCell id="Or5rSA4idkpQnBIdo2xL-30" style="edgeStyle=orthogonalEdgeStyle;rounded=0;orthogonalLoop=1;jettySize=auto;html=1;exitX=0.5;exitY=0.5;exitDx=0;exitDy=0;exitPerimeter=0;entryX=1;entryY=0.5;entryDx=0;entryDy=0;" edge="1" parent="1" source="Or5rSA4idkpQnBIdo2xL-3" target="Or5rSA4idkpQnBIdo2xL-23">
          <mxGeometry relative="1" as="geometry" />
        </mxCell>
        <mxCell id="Or5rSA4idkpQnBIdo2xL-31" style="edgeStyle=orthogonalEdgeStyle;rounded=0;orthogonalLoop=1;jettySize=auto;html=1;exitX=0.5;exitY=0.5;exitDx=0;exitDy=0;exitPerimeter=0;" edge="1" parent="1" source="Or5rSA4idkpQnBIdo2xL-3" target="Or5rSA4idkpQnBIdo2xL-24">
          <mxGeometry relative="1" as="geometry" />
        </mxCell>
        <mxCell id="Or5rSA4idkpQnBIdo2xL-32" style="edgeStyle=orthogonalEdgeStyle;rounded=0;orthogonalLoop=1;jettySize=auto;html=1;exitX=0.5;exitY=0.5;exitDx=0;exitDy=0;exitPerimeter=0;entryX=1;entryY=0.5;entryDx=0;entryDy=0;" edge="1" parent="1" source="Or5rSA4idkpQnBIdo2xL-3" target="Or5rSA4idkpQnBIdo2xL-25">
          <mxGeometry relative="1" as="geometry" />
        </mxCell>
        <mxCell id="Or5rSA4idkpQnBIdo2xL-33" style="edgeStyle=orthogonalEdgeStyle;rounded=0;orthogonalLoop=1;jettySize=auto;html=1;exitX=0.5;exitY=0.5;exitDx=0;exitDy=0;exitPerimeter=0;entryX=1;entryY=0.5;entryDx=0;entryDy=0;" edge="1" parent="1" source="Or5rSA4idkpQnBIdo2xL-3" target="Or5rSA4idkpQnBIdo2xL-26">
          <mxGeometry relative="1" as="geometry" />
        </mxCell>
        <mxCell id="Or5rSA4idkpQnBIdo2xL-34" style="edgeStyle=orthogonalEdgeStyle;rounded=0;orthogonalLoop=1;jettySize=auto;html=1;exitX=0.5;exitY=0.5;exitDx=0;exitDy=0;exitPerimeter=0;entryX=1;entryY=0.5;entryDx=0;entryDy=0;" edge="1" parent="1" source="Or5rSA4idkpQnBIdo2xL-3" target="Or5rSA4idkpQnBIdo2xL-27">
          <mxGeometry relative="1" as="geometry" />
        </mxCell>
        <mxCell id="Or5rSA4idkpQnBIdo2xL-35" style="edgeStyle=orthogonalEdgeStyle;rounded=0;orthogonalLoop=1;jettySize=auto;html=1;exitX=0.5;exitY=0.5;exitDx=0;exitDy=0;exitPerimeter=0;entryX=1;entryY=0.5;entryDx=0;entryDy=0;" edge="1" parent="1" source="Or5rSA4idkpQnBIdo2xL-3" target="Or5rSA4idkpQnBIdo2xL-28">
          <mxGeometry relative="1" as="geometry" />
        </mxCell>
        <mxCell id="Or5rSA4idkpQnBIdo2xL-36" style="edgeStyle=orthogonalEdgeStyle;rounded=0;orthogonalLoop=1;jettySize=auto;html=1;exitX=0.5;exitY=0.5;exitDx=0;exitDy=0;exitPerimeter=0;entryX=1;entryY=0.5;entryDx=0;entryDy=0;" edge="1" parent="1" source="Or5rSA4idkpQnBIdo2xL-3" target="Or5rSA4idkpQnBIdo2xL-29">
          <mxGeometry relative="1" as="geometry" />
        </mxCell>
        <mxCell id="Or5rSA4idkpQnBIdo2xL-3" value="Actor" style="shape=umlActor;verticalLabelPosition=bottom;verticalAlign=top;html=1;" vertex="1" parent="1">
          <mxGeometry x="780" y="100" width="30" height="60" as="geometry" />
        </mxCell>
        <mxCell id="Or5rSA4idkpQnBIdo2xL-4" value="Create Event" style="ellipse;whiteSpace=wrap;html=1;" vertex="1" parent="1">
          <mxGeometry x="120" y="60" width="90" height="50" as="geometry" />
        </mxCell>
        <mxCell id="Or5rSA4idkpQnBIdo2xL-5" value="Modify Event" style="ellipse;whiteSpace=wrap;html=1;" vertex="1" parent="1">
          <mxGeometry x="120" y="140" width="90" height="50" as="geometry" />
        </mxCell>
        <mxCell id="Or5rSA4idkpQnBIdo2xL-6" value="Delete Event" style="ellipse;whiteSpace=wrap;html=1;" vertex="1" parent="1">
          <mxGeometry x="120" y="220" width="90" height="50" as="geometry" />
        </mxCell>
        <mxCell id="Or5rSA4idkpQnBIdo2xL-7" value="Publish Result" style="ellipse;whiteSpace=wrap;html=1;" vertex="1" parent="1">
          <mxGeometry x="120" y="300" width="90" height="50" as="geometry" />
        </mxCell>
        <mxCell id="Or5rSA4idkpQnBIdo2xL-13" value="Create Event" style="ellipse;whiteSpace=wrap;html=1;" vertex="1" parent="1">
          <mxGeometry x="140" y="610" width="90" height="50" as="geometry" />
        </mxCell>
        <mxCell id="Or5rSA4idkpQnBIdo2xL-14" value="Modify Event" style="ellipse;whiteSpace=wrap;html=1;" vertex="1" parent="1">
          <mxGeometry x="300" y="610" width="90" height="50" as="geometry" />
        </mxCell>
        <mxCell id="Or5rSA4idkpQnBIdo2xL-15" value="Delete Event" style="ellipse;whiteSpace=wrap;html=1;" vertex="1" parent="1">
          <mxGeometry x="460" y="610" width="90" height="50" as="geometry" />
        </mxCell>
        <mxCell id="Or5rSA4idkpQnBIdo2xL-16" value="Publish Result" style="ellipse;whiteSpace=wrap;html=1;" vertex="1" parent="1">
          <mxGeometry x="620" y="610" width="90" height="50" as="geometry" />
        </mxCell>
        <mxCell id="Or5rSA4idkpQnBIdo2xL-23" value="Register" style="ellipse;whiteSpace=wrap;html=1;" vertex="1" parent="1">
          <mxGeometry x="590" y="40" width="90" height="50" as="geometry" />
        </mxCell>
        <mxCell id="Or5rSA4idkpQnBIdo2xL-24" value="Login" style="ellipse;whiteSpace=wrap;html=1;" vertex="1" parent="1">
          <mxGeometry x="590" y="120" width="90" height="50" as="geometry" />
        </mxCell>
        <mxCell id="Or5rSA4idkpQnBIdo2xL-25" value="Register For Event" style="ellipse;whiteSpace=wrap;html=1;" vertex="1" parent="1">
          <mxGeometry x="590" y="200" width="90" height="50" as="geometry" />
        </mxCell>
        <mxCell id="Or5rSA4idkpQnBIdo2xL-26" value="Modify Profile" style="ellipse;whiteSpace=wrap;html=1;" vertex="1" parent="1">
          <mxGeometry x="590" y="280" width="90" height="50" as="geometry" />
        </mxCell>
        <mxCell id="Or5rSA4idkpQnBIdo2xL-27" value="View Event Details" style="ellipse;whiteSpace=wrap;html=1;" vertex="1" parent="1">
          <mxGeometry x="590" y="360" width="90" height="50" as="geometry" />
        </mxCell>
        <mxCell id="Or5rSA4idkpQnBIdo2xL-28" value="View User Profile" style="ellipse;whiteSpace=wrap;html=1;" vertex="1" parent="1">
          <mxGeometry x="590" y="440" width="90" height="50" as="geometry" />
        </mxCell>
        <mxCell id="Or5rSA4idkpQnBIdo2xL-29" value="View Event Result" style="ellipse;whiteSpace=wrap;html=1;" vertex="1" parent="1">
          <mxGeometry x="590" y="520" width="90" height="50" as="geometry" />
        </mxCell>
      </root>
    </mxGraphModel>
  </diagram>
</mxfile>
